<?xml version="1.0" encoding="UTF-8"?>
<!DOCTYPE svg PUBLIC "-//W3C//DTD SVG 1.1//EN" "http://www.w3.org/Graphics/SVG/1.1/DTD/svg11.dtd">
<!-- Creator: CorelDRAW X8 -->
<svg xmlns="http://www.w3.org/2000/svg" xml:space="preserve" width="272.029mm" height="142.388mm" version="1.1" style="shape-rendering:geometricPrecision; text-rendering:geometricPrecision; image-rendering:optimizeQuality; fill-rule:evenodd; clip-rule:evenodd"
viewBox="0 0 87953 46037"
 xmlns:xlink="http://www.w3.org/1999/xlink">
 <defs>
  <style type="text/css">
   <![CDATA[
    .fil7 {fill:#D26E26}
    .fil2 {fill:#D68625}
    .fil0 {fill:#1387C6}
    .fil9 {fill:#342621}
    .fil10 {fill:#463428}
    .fil4 {fill:#594332}
    .fil5 {fill:#80624A}
    .fil8 {fill:#858D82}
    .fil3 {fill:#9BA59D}
    .fil6 {fill:#A6B0A8}
    .fil1 {fill:#B2BBB8}
   ]]>
  </style>
 </defs>
 <g id="Plan_x0020_1">
  <metadata id="CorelCorpID_0Corel-Layer"/>
  <path class="fil0" d="M24193 21730c1086,405 1759,379 2547,379 21905,-3 38371,838 59424,5257l1789 323 -169 18348 -87784 0 1760 -737c19074,-7095 29434,-15027 22417,-23547 -19,-22 -21,-31 16,-23z"/>
  <g id="_2368614383952">
   <g>
    <path class="fil1" d="M16401 14885l1173 -987 625 743 -1174 986c-204,172 -512,145 -683,-59l0 0c-172,-204 -145,-512 59,-683z"/>
    <path class="fil1" d="M19287 18020l1027 -863 549 653 -1028 863c-179,151 -449,128 -600,-52l0 0c-151,-179 -128,-450 52,-601z"/>
    <path class="fil2" d="M16529 14777c-1006,-688 -2095,-1445 -2831,-2648 -756,-1324 -3989,-5627 -7408,-11148 -300,-484 -513,-844 -376,-954l11660 13871 -1045 879z"/>
    <path class="fil3" d="M20314 17157l-991 833 -2332 -2337c12,-8 23,-17 34,-26l1174 -986 2115 2516z"/>
    <path class="fil4" d="M20200 18366c-81,2257 1156,2830 3942,3345l-3279 -3901 -663 556z"/>
    <path class="fil5" d="M20497 18117c-101,1530 655,1812 2497,2228l-2131 -2535 -366 307z"/>
   </g>
   <g>
    <path class="fil6" d="M18748 12912l-1174 986 625 743 1173 -987c204,-172 231,-479 59,-683l0 0c-171,-205 -479,-231 -683,-59z"/>
    <path class="fil6" d="M21341 16293l-1027 864 549 653 1027 -864c179,-151 203,-421 52,-601l0 0c-151,-179 -421,-202 -601,-52z"/>
    <path class="fil7" d="M18620 13019c-505,-1109 -1063,-2312 -2122,-3244 -1175,-972 -4858,-4897 -9709,-9214 -425,-378 -744,-650 -875,-534l11660 13871 1046 -879z"/>
    <path class="fil8" d="M20314 17157l991 -833 -1901 -2699c-10,10 -21,20 -32,29l-1173 987 2115 2516z"/>
    <path class="fil9" d="M21525 17253c2237,307 2589,1625 2617,4458l-3279 -3901 662 -557z"/>
    <path class="fil10" d="M21228 17502c1525,164 1672,957 1766,2843l-2131 -2535 365 -308z"/>
   </g>
   <path class="fil0" d="M21259 20806c649,419 1602,668 2883,905 -11,-1136 -75,-2028 -291,-2709 -68,230 -131,600 -236,640 -413,159 -111,351 -176,766 -240,910 -999,608 -1501,553 -240,-26 -461,-83 -679,-155z"/>
  </g>
 </g>
</svg>
