<?xml version="1.0" encoding="UTF-8"?>
<!DOCTYPE svg PUBLIC "-//W3C//DTD SVG 1.1//EN" "http://www.w3.org/Graphics/SVG/1.1/DTD/svg11.dtd">
<!-- Creator: CorelDRAW X8 -->
<svg xmlns="http://www.w3.org/2000/svg" xml:space="preserve" width="107.768mm" height="60.0238mm" version="1.1" style="shape-rendering:geometricPrecision; text-rendering:geometricPrecision; image-rendering:optimizeQuality; fill-rule:evenodd; clip-rule:evenodd"
viewBox="0 0 9149 5096"
 xmlns:xlink="http://www.w3.org/1999/xlink">
 <defs>
  <style type="text/css">
   <![CDATA[
    .fil6 {fill:#9D9E9E}
    .fil4 {fill:#E5097F}
    .fil0 {fill:#E31E24}
    .fil3 {fill:#F7C709}
    .fil2 {fill:#9D2679}
    .fil1 {fill:#A9C321}
    .fil5 {fill:#1071B1}
   ]]>
  </style>
 </defs>
 <g id="Plan_x0020_1">
  <metadata id="CorelCorpID_0Corel-Layer"/>
  <path class="fil0" d="M5315 2884c-153,-407 -160,-978 -291,-1314 -47,-123 -150,-208 -305,-230 -30,194 -43,395 -43,594 0,211 -3,420 0,628 3,208 8,415 -22,617 -17,118 -60,321 116,330 44,3 104,-1 142,-16l-35 -348c-33,-364 -49,-678 22,-1036l7 -28c5,-10 3,-6 6,-9 34,49 118,322 136,391 37,143 67,286 87,440 13,100 27,262 30,365 5,143 170,159 242,129 134,-57 139,-245 164,-364l142 -655c22,-104 168,-747 225,-832 36,42 72,449 78,535 13,198 19,391 24,592 5,193 26,381 46,566 9,84 17,186 74,233 56,45 192,-13 262,-19 -5,-32 -39,-98 -52,-136 -107,-309 -111,-482 -127,-802 -6,-120 -8,-240 -11,-361 -11,-360 -32,-693 -65,-1049 -4,-39 -10,-129 -22,-161 -24,-62 -63,-57 -134,-56 -17,8 -30,28 -41,43 -228,299 -277,520 -366,894 -44,183 -76,369 -118,555 -35,152 -89,332 -152,476 -8,16 -6,19 -19,28z"/>
  <path class="fil1" d="M8705 3084c-18,-8 -103,-110 -120,-131l-225 -288c-158,-214 -360,-588 -594,-685 -62,-25 -151,-27 -214,1 -141,65 -57,242 -41,389 9,88 -16,612 -16,752 1,239 17,246 55,459 72,-14 137,-132 159,-209 63,-221 57,-440 63,-672 1,-68 7,-292 26,-339 88,-3 294,256 344,324 96,130 181,275 270,404 90,130 206,275 315,359 44,33 155,109 230,104 168,-10 54,-399 39,-538 -49,-468 8,-1147 10,-1643 1,-191 -5,-305 -19,-486 -3,-49 -17,-103 -20,-147l-233 1c3,196 23,392 26,586 3,202 17,399 19,600 4,401 -2,788 -74,1159z"/>
  <path class="fil2" d="M2823 3534c54,15 110,49 178,49 68,-1 98,-54 120,-107 24,-58 28,-123 50,-179 11,-28 25,-54 38,-78 44,-82 104,-124 179,-169 70,-43 171,-58 262,-82 41,-11 49,-15 74,-40 56,-55 36,-109 41,-193 -52,-4 -93,23 -142,38 -94,29 -186,50 -281,76 -41,11 -107,39 -141,44 1,-187 42,-386 102,-555 45,-126 111,-286 171,-407 4,-10 8,-17 13,-28l18 -24c24,34 218,452 231,480 75,170 145,324 194,517 23,92 51,182 78,274 29,95 91,326 223,302 60,-10 123,-65 138,-126 6,-26 6,-54 1,-80 -15,-100 -118,-282 -163,-368 -46,-88 -209,-399 -239,-471 -33,-80 -75,-158 -109,-250 -65,-178 -115,-359 -159,-551 -23,-100 -69,-175 -102,-256 -15,-38 0,-110 -8,-161 -6,-38 -15,-118 -30,-148 -26,37 -56,65 -85,116 -26,44 -45,87 -68,134 -38,77 -81,215 -100,303 -23,106 -54,217 -81,322 -29,107 -53,215 -81,323 -57,216 -98,437 -152,654 -40,162 -74,324 -122,483 -16,54 -33,105 -48,158z"/>
  <path class="fil3" d="M7008 1263c-110,-5 -193,64 -233,124 -51,78 -74,168 -91,271 -22,142 -11,531 10,692 14,113 20,217 21,341 1,230 -45,805 206,881 72,22 221,-1 277,-70 78,-97 -19,-299 -69,-408 -67,-147 -119,-240 -132,-413 -35,-471 47,-943 11,-1418z"/>
  <path class="fil4" d="M6193 4685l131 -13c8,44 24,76 48,97 24,20 57,31 97,31 43,0 76,-10 98,-28 21,-18 32,-39 32,-64 0,-16 -4,-29 -13,-40 -9,-11 -26,-21 -49,-29 -15,-5 -51,-15 -106,-29 -72,-18 -122,-40 -151,-66 -41,-37 -61,-81 -61,-134 0,-34 9,-66 28,-96 19,-29 47,-52 83,-67 36,-16 79,-23 131,-23 83,0 145,18 187,55 42,37 64,86 67,148l-135 5c-6,-35 -18,-59 -37,-74 -19,-15 -47,-23 -84,-23 -39,0 -69,8 -91,24 -14,11 -21,24 -21,42 0,16 6,29 20,40 17,15 58,29 123,45 65,15 113,31 144,48 32,16 56,39 74,67 17,29 26,64 26,106 0,38 -10,74 -32,107 -21,34 -51,59 -89,75 -39,16 -87,24 -145,24 -84,0 -149,-19 -194,-58 -45,-39 -72,-95 -81,-170zm1044 64l127 21c-16,46 -42,82 -77,106 -35,25 -79,37 -132,37 -84,0 -146,-27 -186,-82 -32,-44 -48,-100 -48,-167 0,-80 21,-142 63,-187 41,-46 94,-68 158,-68 72,0 128,23 170,71 41,47 61,120 59,217l-319 0c1,38 11,68 31,89 20,21 44,31 73,31 20,0 37,-5 50,-16 14,-11 24,-28 31,-52zm7 -130c0,-37 -10,-65 -28,-84 -18,-19 -40,-29 -66,-29 -28,0 -51,10 -69,31 -18,20 -27,48 -26,82l189 0zm464 282l-128 0 0 -482 118 0 0 68c21,-32 39,-53 55,-63 16,-10 35,-15 55,-15 30,0 58,8 84,24l-39 111c-22,-14 -41,-21 -60,-21 -18,0 -33,5 -45,15 -13,9 -23,27 -30,53 -7,25 -10,79 -10,161l0 149zm338 31l146 17c3,17 8,29 17,36 12,9 31,13 57,13 33,0 58,-5 75,-15 11,-6 20,-17 25,-32 4,-10 6,-30 6,-58l1 -71c-38,53 -87,79 -145,79 -65,0 -116,-28 -154,-82 -30,-43 -44,-97 -44,-162 0,-80 19,-142 58,-185 39,-42 87,-63 145,-63 60,0 109,26 148,78l0 -68 119 0 0 432c0,57 -5,99 -14,127 -10,29 -23,51 -40,67 -17,16 -39,28 -68,37 -28,9 -64,14 -107,14 -82,0 -140,-14 -174,-42 -34,-28 -51,-64 -51,-107 0,-4 0,-9 0,-15zm115 -282c0,51 10,88 29,112 20,24 44,36 73,36 31,0 58,-12 79,-37 22,-24 32,-60 32,-108 0,-50 -10,-87 -31,-111 -20,-24 -46,-36 -77,-36 -31,0 -56,12 -76,36 -19,23 -29,59 -29,108zm854 99l128 21c-17,46 -42,82 -78,106 -35,25 -79,37 -132,37 -84,0 -146,-27 -186,-82 -31,-44 -47,-100 -47,-167 0,-80 21,-142 62,-187 42,-46 95,-68 158,-68 72,0 128,23 170,71 41,47 61,120 59,217l-318 0c1,38 11,68 30,89 20,21 44,31 73,31 20,0 37,-5 51,-16 13,-11 23,-28 30,-52zm8 -130c-1,-37 -11,-65 -29,-84 -18,-19 -40,-29 -66,-29 -27,0 -50,10 -68,31 -19,20 -27,48 -27,82l190 0z"/>
  <path class="fil5" d="M1507 2494c-11,23 -68,65 -93,85 -137,108 -422,233 -592,320 -91,46 -154,87 -230,137 -74,50 -139,101 -194,167 -73,87 -76,183 3,255 141,126 363,144 593,121 187,-18 433,-68 600,-128 296,-106 560,-354 630,-648 17,-73 -12,-121 28,-156 100,-88 240,-139 378,-171 37,-9 113,-32 149,-35 -19,-107 -6,-46 -4,-112 -143,-97 -400,54 -630,31 -62,-6 -89,-32 -120,-59l-48 -43c-75,-71 -174,-149 -268,-191 -112,-50 -129,-62 -254,-107 -271,-99 -517,-130 -819,-277 -35,-17 -84,-44 -114,-65 -112,-81 -201,-166 -222,-329 -28,-224 139,-470 297,-605 178,-151 347,-273 590,-322 81,-16 230,-20 307,18l15 10c-55,96 -164,32 -94,199 11,28 25,48 47,66 48,37 130,24 183,1 51,-22 99,-65 129,-100 176,-198 -54,-513 -148,-517 -56,-3 -27,2 -78,-39 -54,6 -457,163 -508,184 -165,68 -317,143 -463,229 -283,167 -615,431 -574,808 45,407 318,643 579,810 135,86 297,170 453,238 24,10 456,210 472,225zm-762 784c16,-48 103,-144 135,-184 31,-39 127,-123 170,-154 44,-32 83,-56 132,-84 84,-48 209,-90 312,-119 121,-34 260,-72 317,40 52,103 5,263 -48,334 -52,70 -147,133 -261,170 -169,56 -399,63 -581,37 -90,-13 -146,-36 -176,-40z"/>
  <path class="fil6" d="M8827 123l0 242 54 0c21,0 36,-1 45,-3 12,-3 22,-8 29,-16 8,-7 15,-18 20,-35 5,-16 7,-38 7,-67 0,-28 -2,-49 -7,-65 -5,-15 -12,-26 -21,-35 -9,-8 -20,-14 -34,-17 -10,-2 -30,-4 -60,-4l-33 0zm-74 -61l134 0c30,0 54,2 69,7 22,6 40,17 55,33 16,16 27,36 35,60 8,23 12,52 12,86 0,30 -4,56 -11,77 -9,27 -22,49 -39,65 -13,12 -30,22 -52,29 -16,5 -38,8 -65,8l-138 0 0 -365zm-356 154l55 0c35,0 57,-1 66,-4 9,-3 16,-8 21,-16 5,-7 7,-16 7,-27 0,-12 -3,-22 -10,-30 -6,-8 -15,-12 -27,-14 -6,-1 -24,-2 -54,-2l-58 0 0 93zm-73 211l0 -365 155 0c39,0 67,3 85,10 18,6 32,18 42,35 11,16 16,35 16,57 0,28 -8,50 -24,68 -16,18 -40,29 -72,34 16,9 29,19 40,30 10,11 24,31 41,60l45 71 -88 0 -53 -80c-19,-28 -32,-46 -39,-53 -7,-8 -14,-13 -22,-16 -8,-2 -21,-4 -38,-4l-15 0 0 153 -73 0zm-236 -145l-51 -135 -49 135 100 0zm135 145l-79 0 -32 -83 -146 0 -31 83 -78 0 142 -365 78 0 146 365zm-733 0l0 -66 192 -238 -170 0 0 -61 267 0 0 57 -200 246 208 0 0 62 -297 0zm-203 -145l-51 -135 -49 135 100 0zm135 145l-80 0 -31 -83 -147 0 -30 83 -78 0 141 -365 78 0 147 365zm-758 0l0 -365 74 0 0 144 143 0 0 -144 74 0 0 365 -74 0 0 -160 -143 0 0 160 -74 0zm-440 -75l71 -10c3,13 9,23 18,30 9,8 22,11 38,11 18,0 32,-3 41,-10 6,-5 9,-11 9,-19 0,-5 -2,-9 -5,-13 -3,-3 -11,-6 -23,-9 -57,-13 -93,-24 -108,-34 -21,-15 -31,-35 -31,-60 0,-23 9,-42 27,-58 18,-16 46,-23 84,-23 36,0 63,6 81,17 18,12 30,30 36,53l-65 12c-3,-10 -9,-18 -17,-24 -8,-5 -19,-8 -34,-8 -18,0 -31,3 -39,8 -6,3 -8,8 -8,14 0,5 2,9 7,13 6,4 28,11 65,19 38,9 64,19 79,32 14,12 22,29 22,52 0,24 -11,45 -31,62 -20,18 -50,26 -90,26 -36,0 -65,-7 -86,-21 -21,-15 -34,-35 -41,-60zm-162 -80c-1,-20 -6,-35 -16,-46 -10,-11 -22,-16 -36,-16 -15,0 -28,6 -38,17 -10,11 -15,26 -15,45l105 0zm-4 71l70 12c-9,26 -24,45 -43,58 -19,14 -44,20 -72,20 -46,0 -81,-15 -103,-45 -17,-24 -26,-54 -26,-91 0,-44 12,-78 35,-103 22,-25 51,-37 86,-37 40,0 71,13 94,39 22,26 33,65 32,119l-175 0c1,21 6,37 17,49 11,11 24,17 40,17 11,0 20,-3 28,-9 7,-6 13,-16 17,-29zm-346 84l-70 0 0 -265 65 0 0 38c11,-18 21,-30 30,-35 9,-6 19,-8 30,-8 16,0 32,4 47,13l-22 61c-12,-8 -23,-12 -33,-12 -10,0 -18,3 -25,8 -7,6 -12,16 -16,30 -4,14 -6,43 -6,88l0 82zm-264 0l0 -40c-10,14 -23,26 -38,34 -16,8 -33,12 -50,12 -18,0 -34,-3 -48,-11 -14,-8 -24,-19 -31,-33 -6,-14 -9,-34 -9,-59l0 -168 70 0 0 122c0,37 1,60 4,69 2,8 7,15 14,20 7,4 15,7 26,7 12,0 22,-3 32,-10 10,-6 16,-15 19,-24 4,-10 6,-34 6,-72l0 -112 70 0 0 265 -65 0zm-285 -265l0 56 -48 0 0 107c0,22 1,34 1,38 1,4 3,6 7,9 3,2 7,3 12,3 6,0 15,-2 28,-6l6 54c-17,7 -35,10 -56,10 -12,0 -23,-2 -33,-6 -11,-4 -18,-10 -23,-16 -4,-7 -8,-16 -10,-28 -1,-8 -2,-24 -2,-49l0 -116 -32 0 0 -56 32 0 0 -52 70 -42 0 94 48 0zm-253 265l-69 0 0 -135c0,-29 -2,-47 -5,-55 -3,-9 -8,-15 -15,-20 -6,-5 -15,-7 -24,-7 -12,0 -23,3 -33,10 -10,7 -16,16 -20,26 -4,11 -5,32 -5,61l0 120 -70 0 0 -265 65 0 0 39c23,-30 52,-44 87,-44 16,0 30,2 43,8 13,6 22,13 29,21 6,9 11,19 14,30 2,11 3,26 3,47l0 164zm-443 0l0 -265 70 0 0 265 -70 0zm0 -300l0 -65 70 0 0 65 -70 0zm-187 145c-1,-20 -6,-35 -16,-46 -10,-11 -22,-16 -36,-16 -15,0 -28,6 -38,17 -10,11 -15,26 -15,45l105 0zm-4 71l70 12c-9,26 -24,45 -43,58 -19,14 -43,20 -72,20 -46,0 -81,-15 -103,-45 -17,-24 -26,-54 -26,-91 0,-44 12,-78 35,-103 22,-25 51,-37 86,-37 40,0 71,13 94,39 22,26 33,65 32,119l-175 0c1,21 6,37 17,49 11,11 24,17 40,17 11,0 20,-3 28,-9 7,-6 13,-16 17,-29zm-480 -220l0 104 40 0c29,0 49,-1 58,-5 10,-4 18,-10 23,-18 6,-8 9,-18 9,-29 0,-13 -4,-24 -12,-33 -8,-8 -18,-14 -30,-16 -8,-2 -26,-3 -52,-3l-36 0zm-74 304l0 -365 118 0c45,0 74,2 88,5 21,6 38,18 52,36 15,18 22,42 22,71 0,23 -4,41 -13,57 -8,15 -18,27 -30,36 -13,8 -26,14 -39,17 -17,3 -43,5 -76,5l-48 0 0 138 -74 0zm-430 0l0 -362 74 0 0 300 183 0 0 62 -257 0zm-358 -211l55 0c35,0 57,-1 66,-4 9,-3 16,-8 21,-16 5,-7 7,-16 7,-27 0,-12 -3,-22 -10,-30 -6,-8 -15,-12 -27,-14 -6,-1 -24,-2 -54,-2l-58 0 0 93zm-74 211l0 -365 156 0c39,0 67,3 85,10 17,6 32,18 42,35 11,16 16,35 16,57 0,28 -8,50 -24,68 -16,18 -40,29 -72,34 16,9 29,19 39,30 11,11 25,31 42,60l45 71 -88 0 -53 -80c-19,-28 -32,-46 -39,-53 -7,-8 -15,-13 -22,-16 -8,-2 -21,-4 -38,-4l-15 0 0 153 -74 0zm-235 -145l-51 -135 -49 135 100 0zm135 145l-80 0 -31 -83 -146 0 -31 83 -78 0 142 -365 78 0 146 365zm-749 -118l72 -8c4,24 13,42 26,53 13,12 31,17 53,17 24,0 42,-5 54,-15 12,-10 18,-22 18,-35 0,-9 -3,-16 -8,-22 -5,-6 -14,-11 -26,-16 -9,-3 -28,-8 -59,-16 -39,-10 -67,-22 -83,-36 -22,-20 -33,-45 -33,-74 0,-18 5,-36 15,-52 11,-16 26,-29 46,-37 20,-9 43,-13 71,-13 46,0 80,10 103,31 24,20 36,47 37,81l-74 2c-3,-19 -10,-32 -20,-40 -10,-9 -26,-13 -47,-13 -21,0 -37,5 -49,14 -8,5 -12,13 -12,22 0,9 4,16 11,23 9,7 32,16 67,24 36,8 63,17 80,26 17,9 30,22 40,37 10,16 15,36 15,59 0,21 -6,40 -18,58 -11,19 -28,32 -49,41 -21,9 -48,13 -80,13 -46,0 -81,-10 -106,-31 -25,-22 -39,-53 -44,-93z"/>
 </g>
</svg>
